<svg width="30" height="30" viewBox="0 0 30 30" fill="none" xmlns="http://www.w3.org/2000/svg">
    <path fill="url(#paint0_linear)" opacity="0.4" d="M15.0001 27.5002C8.10637 27.5002 2.50012 21.8927 2.50012 15.0002C2.50012 8.10774 8.10637 2.50024 15.0001 2.50024C21.8926 2.50024 27.5001 8.10774 27.5001 15.0002C27.5001 21.8927 21.8926 27.5002 15.0001 27.5002Z"/>
    <path fill="#FF5A52"             opacity="1.0" d="M16.8031 20.2761C16.5644 20.2761 16.3244 20.1848 16.1419 20.0023L11.7831 15.6648C11.6069 15.4886 11.5081 15.2498 11.5081 14.9998C11.5081 14.7511 11.6069 14.5123 11.7831 14.3361L16.1419 9.99609C16.5081 9.63109 17.1006 9.63109 17.4669 9.99859C17.8319 10.3661 17.8306 10.9598 17.4644 11.3248L13.7731 14.9998L17.4644 18.6748C17.8306 19.0398 17.8319 19.6323 17.4669 19.9998C17.2844 20.1848 17.0431 20.2761 16.8031 20.2761Z"/>
    <defs>
        <linearGradient id="paint0_linear" x1="22.5" y1="23.5" x2="7.5" y2="3" gradientUnits="userSpaceOnUse">
            <stop offset="0.0376884" stop-color="#FF5A52"/>
            <stop offset="1" stop-color="#FF5A52" stop-opacity="0"/>
        </linearGradient>
    </defs>
</svg>
