<svg width="26" height="25" viewBox="0 0 26 25" fill="none" xmlns="http://www.w3.org/2000/svg">
<path fill-rule="evenodd" clip-rule="evenodd" d="M3.59035 16.9946L4.39129 10.5418C4.87921 8.23929 6.26013 7.29175 7.57661 7.29175H18.1545C19.4894 7.29175 20.9163 8.17296 21.3306 10.5418L22.1407 16.9946C22.8036 21.7323 20.3639 22.9167 17.1786 22.9167H8.54326C5.36714 22.9167 3.00116 21.2017 3.59035 16.9946ZM15.899 12.6549C16.4074 12.6549 16.8196 12.2306 16.8196 11.7073C16.8196 11.184 16.4074 10.7598 15.899 10.7598C15.3905 10.7598 14.9783 11.184 14.9783 11.7073C14.9783 12.2306 15.3905 12.6549 15.899 12.6549ZM10.7896 11.7073C10.7896 12.2306 10.3774 12.6549 9.86894 12.6549C9.3605 12.6549 8.94832 12.2306 8.94832 11.7073C8.94832 11.184 9.3605 10.7598 9.86894 10.7598C10.3774 10.7598 10.7896 11.184 10.7896 11.7073Z" fill="white"/>
<path opacity="0.4" d="M7.69386 7.05663C7.6906 7.13742 7.70612 7.21788 7.73923 7.29171H9.23622C9.26521 7.21665 9.28057 7.13705 9.28158 7.05663C9.28158 5.05923 10.9064 3.44002 12.9107 3.44002C14.9149 3.44002 16.5397 5.05923 16.5397 7.05663C16.526 7.13439 16.526 7.21394 16.5397 7.29171H18.073C18.0867 7.21394 18.0867 7.13439 18.073 7.05663C17.9565 4.27703 15.6614 2.08337 12.8698 2.08337C10.0782 2.08337 7.78314 4.27703 7.66665 7.05663H7.69386Z" fill="white"/>
</svg>
