<svg width="26" height="25" viewBox="0 0 26 25" fill="none" xmlns="http://www.w3.org/2000/svg">
<path opacity="0.4" fill-rule="evenodd" clip-rule="evenodd" d="M6.65686 21.4464C6.65686 20.5714 7.36519 19.863 8.24019 19.863C9.10478 19.863 9.81311 20.5714 9.81311 21.4464C9.81311 22.311 9.10478 23.0193 8.24019 23.0193C7.36519 23.0193 6.65686 22.311 6.65686 21.4464ZM18.3756 21.4464C18.3756 20.5714 19.0839 19.863 19.9589 19.863C20.8235 19.863 21.5319 20.5714 21.5319 21.4464C21.5319 22.311 20.8235 23.0193 19.9589 23.0193C19.0839 23.0193 18.3756 22.311 18.3756 21.4464Z" fill="white"/>
<path fill-rule="evenodd" clip-rule="evenodd" d="M21.5321 6.6136C22.1675 6.6136 22.5841 6.83235 23.0008 7.31152C23.4175 7.79068 23.4904 8.47818 23.3966 9.10214L22.4071 15.9355C22.2196 17.249 21.0946 18.2167 19.7716 18.2167H8.40706C7.02165 18.2167 5.87581 17.1542 5.76123 15.7803L4.8029 4.42506L3.22998 4.15423C2.81331 4.08131 2.52165 3.67506 2.59456 3.25839C2.66748 2.83131 3.07373 2.55006 3.50081 2.61256L5.98519 2.98756C6.33936 3.0511 6.59977 3.34173 6.63102 3.69589L6.82894 6.02923C6.86019 6.3636 7.13102 6.6136 7.46436 6.6136H21.5321ZM15.2196 12.0292H18.105C18.5425 12.0292 18.8862 11.6751 18.8862 11.248C18.8862 10.8105 18.5425 10.4667 18.105 10.4667H15.2196C14.7821 10.4667 14.4383 10.8105 14.4383 11.248C14.4383 11.6751 14.7821 12.0292 15.2196 12.0292Z" fill="white"/>
</svg>
