<svg width="18" height="18" viewBox="0 0 18 18" fill="none" xmlns="http://www.w3.org/2000/svg"><path fill="white" fill-rule="evenodd" clip-rule="evenodd" d="M4.02793 0.0032498L4.00233 0.00155293C2.81717 -0.0535875 1.14471 1.37145 0.52673 2.40216C-0.151328 3.32833 -0.164365 4.55827 0.427763 5.98095L0.521113 6.19578C2.08139 10.0384 7.93622 15.8858 11.7638 17.4868C13.2283 18.1719 14.5335 18.1844 15.5619 17.4439C16.466 16.927 17.9488 15.2071 17.9059 13.9857C17.8652 13.4831 17.6316 13.0729 17.2688 12.6994L17.1802 12.6114L16.9337 12.3835C16.041 11.5853 14.4956 10.4488 14.0176 10.3484C13.4563 10.2314 13.0758 10.3361 12.4755 10.6671L12.2519 10.7942C11.825 11.0404 11.6724 11.0825 11.4702 11.0087C9.33456 10.132 7.82862 8.6185 6.94612 6.44754C6.88875 6.2867 6.91712 6.14622 7.10274 5.80563L7.20054 5.63195C7.60514 4.9253 7.74078 4.52582 7.61334 3.91069L7.59084 3.83098C7.3818 3.22238 6.10058 1.50529 5.38919 0.757757L5.27459 0.64181C4.90384 0.277702 4.49616 0.0435592 4.02793 0.0032498ZM3.92849 1.31759L3.9773 1.32696C4.06271 1.35107 4.16343 1.41022 4.27685 1.50768L4.35947 1.58322L4.51539 1.74736C5.12024 2.41519 6.29203 3.99008 6.33079 4.1784C6.36741 4.35519 6.32691 4.50294 6.13498 4.85114L6.03457 5.02866C5.61193 5.76872 5.4811 6.24591 5.72398 6.92073C6.7492 9.44425 8.51377 11.2177 10.9993 12.2374C11.6403 12.4718 12.0947 12.3781 12.7386 12.0292L12.9591 11.9046C13.396 11.652 13.5559 11.5971 13.7506 11.6377C13.9409 11.6777 15.6433 12.9555 16.2674 13.5559L16.3403 13.6283C16.5012 13.7941 16.5892 13.9487 16.5987 14.0633C16.6074 14.3313 16.339 14.8347 15.8653 15.3841C15.528 15.7753 15.0902 16.1752 14.9003 16.3079L14.8549 16.3372C14.2415 16.775 13.484 16.7938 12.4822 16.367L12.2915 16.2817C8.83088 14.8337 3.38859 9.43921 1.81677 5.89329L1.72362 5.67413C1.23657 4.59684 1.19616 3.80926 1.54588 3.23624L1.61601 3.13129C2.02133 2.46014 3.24286 1.40304 3.85107 1.32167L3.92849 1.31759ZM11.1795 0.219342L11.2685 0.223227C14.8053 0.618 17.5983 3.42268 17.9958 6.97807C18.0362 7.33946 17.7776 7.66536 17.4181 7.70598C17.0587 7.7466 16.7345 7.48656 16.6941 7.12517C16.365 4.18126 14.0524 1.85902 11.124 1.53215C10.7644 1.49202 10.5054 1.16648 10.5453 0.805029C10.5785 0.503822 10.8089 0.27273 11.0929 0.227289L11.1795 0.219342ZM11.2332 3.33082L11.3215 3.34201C13.1291 3.69622 14.5415 5.11627 14.8938 6.93351C14.963 7.29047 14.7313 7.63624 14.3763 7.70581C14.0212 7.77539 13.6773 7.54242 13.6081 7.18547C13.3579 5.89467 12.3548 4.88625 11.0709 4.63465C10.7159 4.56507 10.4842 4.21931 10.5534 3.86235C10.6111 3.56489 10.8595 3.35353 11.1462 3.33161L11.2332 3.33082Z"/></svg>
