<svg width="42" height="42" viewBox="0 0 42 42" fill="none" xmlns="http://www.w3.org/2000/svg">
<path fill-rule="evenodd" clip-rule="evenodd" d="M25.1227 3.51388C24.7323 3.45792 24.3402 3.57334 24.0282 3.82167C23.7076 4.07349 23.5071 4.43724 23.4636 4.84471C23.3712 5.6684 23.9655 6.41339 24.7881 6.50607C30.461 7.13914 34.8704 11.5584 35.5082 17.2489C35.5936 18.0114 36.2333 18.5868 36.9966 18.5868C37.0541 18.5868 37.1099 18.5833 37.1674 18.5763C37.5665 18.5326 37.9221 18.3349 38.173 18.0202C38.4222 17.7054 38.5355 17.3136 38.4902 16.9132C37.6955 9.81305 32.2004 4.30259 25.1227 3.51388ZM25.2317 9.60741C24.3986 9.45351 23.6335 9.98515 23.4749 10.7983C23.3163 11.6115 23.8496 12.4055 24.66 12.5646C27.1 13.0403 28.984 14.929 29.4615 17.3773V17.3791C29.5974 18.0838 30.2179 18.5962 30.9325 18.5962C31.0283 18.5962 31.1242 18.5875 31.2218 18.57C32.0322 18.4074 32.5655 17.6152 32.4069 16.8002C31.6941 13.1435 28.8794 10.3192 25.2317 9.60741ZM28.0001 26.4084C28.7902 25.9529 29.6825 25.4383 30.8082 25.6778C31.8277 25.8929 35.3029 28.7137 36.2545 29.6913C36.8784 30.3313 37.2253 30.9924 37.2793 31.6534C37.3734 34.2469 33.8494 37.2076 33.2081 37.5766C32.3558 38.1904 31.3641 38.5 30.2505 38.5C29.1124 38.5 27.8436 38.1764 26.4598 37.5311C18.9517 34.3973 7.48218 23.1543 4.44966 15.7044C3.19133 12.9308 3.18262 10.6433 4.42874 8.92428C4.92545 8.11808 7.75754 4.74814 10.2934 4.85482C10.9678 4.91253 11.6231 5.25879 12.2662 5.88836C13.2387 6.84146 15.9889 10.3268 16.2015 11.3499C16.4368 12.4866 15.9209 13.3907 15.4626 14.1847C15.3648 14.3553 15.2331 14.5579 15.0888 14.7798C14.5411 15.6219 13.8121 16.7428 14.0701 17.4584C15.9192 21.9983 20.1909 25.9593 24.7327 27.8201C25.4351 28.0753 26.5553 27.3411 27.3948 26.791C27.6135 26.6477 27.8131 26.5169 27.9813 26.4193L28.0001 26.4084Z" fill="white"/>
</svg>
