<svg width="32" height="32" viewBox="0 0 32 32" fill="none" xmlns="http://www.w3.org/2000/svg">
<path opacity="0.4" d="M19.2244 7.31976C18.5897 7.20251 18.0067 7.60756 17.8859 8.22714C17.7651 8.84671 18.1714 9.45163 18.7889 9.57288C20.6479 9.9353 22.0833 11.3743 22.4471 13.2397V13.241C22.5507 13.778 23.0234 14.1684 23.5678 14.1684C23.6409 14.1684 23.7139 14.1617 23.7883 14.1484C24.4057 14.0245 24.8121 13.4209 24.6912 12.8C24.1481 10.0139 22.0036 7.86205 19.2244 7.31976Z" fill="white"/>
<path opacity="0.4" d="M19.1414 2.67708C18.844 2.63444 18.5452 2.72238 18.3075 2.91158C18.0632 3.10345 17.9105 3.38059 17.8773 3.69105C17.8069 4.31862 18.2597 4.88623 18.8864 4.95684C23.2087 5.43918 26.5682 8.8062 27.0542 13.1419C27.1192 13.7228 27.6066 14.1612 28.1882 14.1612C28.232 14.1612 28.2745 14.1585 28.3183 14.1532C28.6224 14.1199 28.8933 13.9693 29.0845 13.7295C29.2744 13.4896 29.3607 13.1912 29.3262 12.8861C28.7206 7.47645 24.5339 3.278 19.1414 2.67708Z" fill="white"/>
<path d="M23.4732 19.5638C22.6087 19.3799 21.9249 19.7796 21.3194 20.1287C20.6993 20.4885 19.5188 21.4411 18.8442 21.196C15.3838 19.7783 12.1292 16.7604 10.7203 13.3014C10.472 12.6125 11.4241 11.4307 11.7813 10.8071C12.1305 10.2022 12.5236 9.51334 12.3443 8.64727C12.1823 7.8678 10.0869 5.21229 9.34597 4.48612C8.85599 4.00645 8.35671 3.74263 7.84282 3.69866C5.91077 3.61739 3.75299 6.18496 3.37454 6.7992C2.42512 8.10897 2.43176 9.85177 3.39048 11.965C5.70097 17.6411 14.4397 26.2072 20.1601 28.5949C21.2145 29.0866 22.1812 29.3331 23.0483 29.3331C23.8968 29.3331 24.6523 29.0972 25.3016 28.6295C25.7903 28.3484 28.4753 26.0926 28.4035 24.1166C28.3624 23.613 28.0981 23.1093 27.6228 22.6217C26.8977 21.8768 24.25 19.7277 23.4732 19.5638Z" fill="white"/>
</svg>
