<svg width="21" height="22" viewBox="0 0 21 22" fill="none" xmlns="http://www.w3.org/2000/svg"><path stroke="white" stroke-width="1.5" stroke-linecap="round" stroke-linejoin="round" fill-rule="evenodd" clip-rule="evenodd" d="M2.61666 4.41484C2.89344 3.95655 4.41843 2.28966 5.50669 2.33998C5.83199 2.36694 6.11956 2.56373 6.3532 2.79198C6.88969 3.31586 8.42546 5.29725 8.51263 5.7142C8.72471 6.7368 7.50616 7.32628 7.87909 8.35697C8.82985 10.6834 10.4681 12.3216 12.7955 13.2714C13.8254 13.6443 14.4149 12.4258 15.4375 12.6388C15.8536 12.7259 17.836 14.2616 18.3599 14.7981C18.5873 15.0308 18.785 15.3193 18.8119 15.6446C18.8524 16.7903 17.0821 18.3367 16.737 18.5344C15.9228 19.1167 14.8606 19.1068 13.5657 18.5048C9.95225 17.0014 4.1776 11.3358 2.64632 7.58597C2.0604 6.29829 2.01997 5.22896 2.61666 4.41484Z"/></svg>
