<svg width="24" height="25" viewBox="0 0 24 25" fill="none" xmlns="http://www.w3.org/2000/svg">
<path fill="#703FC4" opacity="0.4" d="M16.3397 2.82349H7.66969C4.27969 2.82349 1.99969 5.20349 1.99969 8.74349V16.9135C1.99969 20.4435 4.27969 22.8235 7.66969 22.8235H16.3397C19.7297 22.8235 21.9997 20.4435 21.9997 16.9135V8.74349C21.9997 5.20349 19.7297 2.82349 16.3397 2.82349Z"/>
<path fill="#703FC4" d="M15.0154 14.594L13.2364 12.816L15.0144 11.038C15.3564 10.697 15.3564 10.142 15.0144 9.80099C14.6724 9.45699 14.1194 9.45799 13.7774 9.79999L11.9984 11.578L10.2194 9.79799C9.8774 9.45599 9.3234 9.45799 8.9814 9.79799C8.6404 10.14 8.6404 10.695 8.9814 11.036L10.7614 12.816L8.9854 14.591C8.6434 14.933 8.6434 15.488 8.9854 15.828C9.1564 16 9.3794 16.085 9.6034 16.085C9.8284 16.085 10.0514 16 10.2224 15.829L11.9984 14.053L13.7784 15.832C13.9494 16.003 14.1724 16.088 14.3964 16.088C14.6204 16.088 14.8444 16.002 15.0154 15.832C15.3574 15.49 15.3574 14.936 15.0154 14.594Z"/>
</svg>
