<svg width="26" height="25" viewBox="0 0 26 25" fill="none" xmlns="http://www.w3.org/2000/svg">
<path opacity="0.4" d="M12.624 22.9148C11.823 22.9148 11.023 22.6106 10.4115 22.0033L9.65111 21.2429C9.35632 20.9492 8.96153 20.7867 8.54278 20.7856H7.47298C5.74382 20.7856 4.33653 19.3783 4.33653 17.6492V16.5783C4.33548 16.1606 4.17298 15.7658 3.87819 15.469L3.13028 14.7221C1.90528 13.5044 1.90007 11.5138 3.11882 10.2877L3.87923 9.52626C4.17298 9.23147 4.33548 8.83667 4.33653 8.41792V7.34917C4.33653 5.61897 5.74382 4.21167 7.47298 4.21167H8.54382C8.96153 4.21167 9.35528 4.04917 9.65215 3.7523L10.4011 3.00542C11.6188 1.78042 13.6084 1.77417 14.8355 2.99397L15.5959 3.75438C15.8917 4.04917 16.2855 4.21167 16.7032 4.21167H17.774C19.5032 4.21167 20.9105 5.61897 20.9105 7.34917V8.41896C20.9115 8.83667 21.074 9.23146 21.3688 9.52834L22.1167 10.2763C22.7094 10.8658 23.0376 11.6513 23.0407 12.4898C23.0428 13.3231 22.7219 14.1075 22.1376 14.7002C22.1272 14.7106 22.1178 14.7221 22.1074 14.7315L21.3678 15.471C21.074 15.7658 20.9115 16.1606 20.9105 16.5794V17.6492C20.9105 19.3783 19.5032 20.7856 17.774 20.7856H16.7032C16.2855 20.7867 15.8907 20.9492 15.5949 21.244L14.8459 21.9919C14.2355 22.6065 13.4292 22.9148 12.624 22.9148Z" fill="white"/>
<path fill-rule="evenodd" clip-rule="evenodd" d="M10.5862 10.4696C10.4143 10.6415 10.1914 10.7342 9.94454 10.7342C9.71329 10.7342 9.48621 10.6394 9.30391 10.4686C9.131 10.2967 9.03308 10.0613 9.03308 9.82277C9.03308 9.59569 9.12891 9.36235 9.29766 9.18214C9.39037 9.08839 9.50079 9.01756 9.61121 8.98006C9.92579 8.83631 10.3435 8.92069 10.5914 9.1811C10.68 9.26964 10.7477 9.36652 10.7925 9.46756C10.8414 9.57589 10.8664 9.69881 10.8664 9.82277C10.8664 10.0707 10.7675 10.3009 10.5862 10.4696ZM15.9481 9.1768C15.5929 8.82263 15.0148 8.82263 14.6596 9.1768L9.30544 14.531C8.95023 14.8862 8.95023 15.4643 9.30544 15.8205C9.47835 15.9924 9.70648 16.0872 9.95023 16.0872C10.194 16.0872 10.4221 15.9924 10.594 15.8205L15.9481 10.4664C16.3034 10.1101 16.3034 9.53305 15.9481 9.1768ZM15.6518 14.3374C15.3143 14.1957 14.9143 14.2728 14.6477 14.5394C14.5925 14.604 14.5143 14.704 14.4612 14.8217C14.405 14.9488 14.3977 15.0853 14.3977 15.1769C14.3977 15.2686 14.405 15.404 14.4612 15.5311C14.5133 15.6478 14.5758 15.7426 14.6581 15.8249C14.8466 15.9999 15.0654 16.0884 15.3091 16.0884C15.5404 16.0884 15.7675 15.9946 15.9539 15.8207C16.1195 15.6551 16.2102 15.4259 16.2102 15.1769C16.2102 14.9269 16.1195 14.6988 15.9529 14.5321C15.8612 14.4415 15.7508 14.3707 15.6518 14.3374Z" fill="white"/>
</svg>
