<svg width="44" height="44" viewBox="0 0 44 44" fill="none" xmlns="http://www.w3.org/2000/svg"><path fill="#FFFFFF" d="M22 0L41.0526 11V33L22 44L2.94744 33V11L22 0Z"/><path fill="#0066CC" fill-rule="evenodd" clip-rule="evenodd" d="M26.8801 16.3819C26.6229 13.9198 24.531 12 21.9885 12C20.6836 11.9946 19.4273 12.5077 18.5004 13.4261C17.6959 14.2232 17.1971 15.2686 17.0795 16.3819H17.0786C15.2972 16.3819 13.8006 17.6831 13.3801 19.9423L12.6192 25.8123C11.9715 30.1105 13.9929 32 17.9487 32H26.046C29.7043 32 31.8909 29.8703 31.4419 26.0482L30.6564 19.9817C30.1528 17.6943 28.6947 16.3819 26.9516 16.3819H26.8801ZM25.4138 16.3819C25.1653 14.7215 23.7261 13.4478 21.9855 13.4478C21.0644 13.4439 20.1797 13.8053 19.5271 14.4519C18.9972 14.9769 18.6557 15.6549 18.5459 16.3819H25.4138ZM17.0786 17.8297H26.9516C27.9739 17.8297 28.8719 18.6379 29.2244 20.2299L29.968 25.9973C30.4105 29.0657 28.9375 30.5522 26.046 30.5522H17.9487C14.8177 30.5522 13.5542 29.3711 14.0602 26.0121L14.817 20.1666C15.1061 18.6189 16.0139 17.8297 17.0786 17.8297ZM24.8652 20.5164C25.267 20.5164 25.5927 20.8405 25.5927 21.2403C25.5927 21.6067 25.319 21.9096 24.9639 21.9575L24.8652 21.9641H24.8208C24.419 21.9641 24.0933 21.64 24.0933 21.2403C24.0933 20.8738 24.367 20.5709 24.7221 20.523L24.8208 20.5164H24.8652ZM19.937 21.2403C19.937 20.8405 19.6113 20.5164 19.2095 20.5164H19.1651L19.0664 20.523C18.7113 20.5709 18.4376 20.8738 18.4376 21.2403C18.4376 21.64 18.7633 21.9641 19.1651 21.9641H19.2095L19.3082 21.9575C19.6633 21.9096 19.937 21.6067 19.937 21.2403Z"/></svg>
