<svg width="26" height="25" viewBox="0 0 26 25" fill="none" xmlns="http://www.w3.org/2000/svg">
<path d="M10.2654 21.6389V18.4538C10.2654 17.6407 10.9294 16.9816 11.7484 16.9816H14.7423C15.1356 16.9816 15.5128 17.1367 15.7909 17.4128C16.0691 17.6889 16.2253 18.0634 16.2253 18.4538V21.6389C16.2228 21.977 16.3563 22.302 16.5962 22.5419C16.8361 22.7818 17.1626 22.9167 17.5031 22.9167H19.5457C20.4996 22.9192 21.4154 22.5447 22.0908 21.8759C22.7663 21.2071 23.1459 20.299 23.1459 19.3519V10.278C23.1458 9.51302 22.8043 8.78738 22.2132 8.29657L15.2646 2.7874C14.0559 1.82146 12.3241 1.85265 11.1515 2.86148L4.36149 8.29657C3.74246 8.77291 3.37247 9.5007 3.35419 10.278V19.3427C3.35419 21.3166 4.96604 22.9167 6.95437 22.9167H8.95032C9.65755 22.9167 10.2323 22.3503 10.2374 21.6482L10.2654 21.6389Z" fill="white"/>
</svg>
