<svg xmlns="http://www.w3.org/2000/svg" xmlns:xlink="http://www.w3.org/1999/xlink" x="0px" y="0px" viewBox="0 0 20.3 20.3"> <g> <path fill="#FFFFFF" d="M7.4,8.7L7.4,8.7l-0.1,0C6.9,8.7,6.6,9,6.6,9.4c0,0.4,0.3,0.7,0.7,0.7h0l0.1,0c0.4,0,0.6-0.4,0.6-0.7 C8.1,9,7.8,8.7,7.4,8.7z"/> <path fill="#FFFFFF" d="M13,8.7L13,8.7l-0.1,0c-0.4,0-0.6,0.4-0.6,0.7c0,0.4,0.3,0.7,0.7,0.7h0l0.1,0c0.4,0,0.6-0.4,0.6-0.7 C13.8,9,13.4,8.7,13,8.7z"/> <path fill="#FFFFFF" d="M19.6,14.2l-0.8-6.1c-0.5-2.3-2-3.6-3.7-3.6H15c-0.3-2.5-2.3-4.4-4.9-4.4c-1.3,0-2.6,0.5-3.5,1.4 c-0.8,0.8-1.3,1.8-1.4,3h0C3.5,4.5,2,5.8,1.5,8.1L0.8,14c-0.6,4.3,1.4,6.2,5.3,6.2h8.1C17.9,20.2,20.1,18,19.6,14.2z M7.7,2.6 c0.7-0.6,1.5-1,2.5-1c1.7,0,3.2,1.3,3.4,2.9H6.7C6.8,3.8,7.2,3.1,7.7,2.6z M14.2,18.7H6.1c-3.1,0-4.4-1.2-3.9-4.5L3,8.3 C3.3,6.8,4.2,6,5.2,6h9.9c1,0,1.9,0.8,2.3,2.4l0.7,5.8C18.6,17.2,17.1,18.7,14.2,18.7z"/> </g> </svg>
