<svg width="74" height="75" viewBox="0 0 74 75" fill="none" xmlns="http://www.w3.org/2000/svg">
<g filter="url(#filter0_b)">
<path fill-rule="evenodd" clip-rule="evenodd" d="M6.81714 37.6974C6.81714 20.6788 20.4694 6.84624 37.2338 6.84624C53.9982 6.84624 67.6505 20.6788 67.6505 37.6974C67.6505 54.6803 53.9982 68.5129 37.2338 68.5129C20.4694 68.5129 6.81714 54.6803 6.81714 37.6974ZM48.3905 40.8179C48.7135 40.4907 49.1245 39.985 49.2126 39.866C49.6823 39.2413 49.9172 38.4679 49.9172 37.6974C49.9172 36.8318 49.653 36.0286 49.1539 35.3741C49.1129 35.3327 49.0328 35.2443 48.9284 35.1291C48.7332 34.9136 48.4528 34.6044 48.185 34.333C45.7775 31.7152 39.4945 27.4315 36.2062 26.1226C35.7071 25.9174 34.4446 25.4682 33.7694 25.4385C33.1235 25.4385 32.5069 25.5872 31.9197 25.8847C31.1857 26.3011 30.5985 26.9556 30.2756 27.729C30.07 28.2645 29.7471 29.8708 29.7471 29.9006C29.4241 31.6557 29.248 34.5115 29.248 37.6647C29.248 40.6722 29.4241 43.406 29.6884 45.1908C29.6956 45.1982 29.7209 45.3258 29.7601 45.5241C29.8794 46.127 30.1279 47.383 30.393 47.8978C31.0389 49.1472 32.3014 49.9207 33.6519 49.9207H33.7694C34.6502 49.8909 36.4998 49.1175 36.4998 49.0877C39.6119 47.7789 45.7481 43.7034 48.2143 40.9964L48.3905 40.8179Z" fill="white" fill-opacity="0.5"/>
</g>
<defs>
<filter id="filter0_b" x="-37.2661" y="-37.3204" width="149" height="150" filterUnits="userSpaceOnUse" color-interpolation-filters="sRGB">
<feFlood flood-opacity="0" result="BackgroundImageFix"/>
<feGaussianBlur in="BackgroundImage" stdDeviation="19"/>
<feComposite in2="SourceAlpha" operator="in" result="effect1_backgroundBlur"/>
<feBlend mode="normal" in="SourceGraphic" in2="effect1_backgroundBlur" result="shape"/>
</filter>
</defs>
</svg>
