<svg width="24" height="24" viewBox="0 0 24 24" fill="none" xmlns="http://www.w3.org/2000/svg">
<rect width="24" height="24" rx="4" fill="#A6150E" fill-opacity="0.72"/>
<path opacity="0.4" d="M18.3694 9.90705C18.3694 9.96371 17.9253 15.581 17.6716 17.9451C17.5127 19.3959 16.5775 20.2759 15.1746 20.3009C14.0966 20.325 13.0414 20.3333 12.0032 20.3333C10.901 20.3333 9.82309 20.325 8.77678 20.3009C7.42088 20.2684 6.4848 19.3709 6.33406 17.9451C6.07309 15.5727 5.63706 9.96371 5.62895 9.90705C5.62085 9.73622 5.67596 9.57373 5.78781 9.44206C5.89803 9.3204 6.05688 9.24707 6.22383 9.24707H17.7826C17.9488 9.24707 18.0995 9.3204 18.2186 9.44206C18.3297 9.57373 18.3856 9.73622 18.3694 9.90705Z" fill="white"/>
<path d="M19.5 6.98055C19.5 6.63807 19.2301 6.36974 18.9059 6.36974H16.4762C15.9818 6.36974 15.5522 6.01809 15.442 5.52227L15.3059 4.91479C15.1154 4.18065 14.4581 3.6665 13.7206 3.6665H10.2802C9.53458 3.6665 8.88378 4.18065 8.68603 4.95479L8.55879 5.52311C8.44775 6.01809 8.01821 6.36974 7.52464 6.36974H5.09488C4.76988 6.36974 4.5 6.63807 4.5 6.98055V7.29721C4.5 7.63136 4.76988 7.90802 5.09488 7.90802H18.9059C19.2301 7.90802 19.5 7.63136 19.5 7.29721V6.98055Z" fill="white"/>
</svg>
