<svg width="19" height="19" viewBox="0 0 19 19" fill="none" xmlns="http://www.w3.org/2000/svg"><g clip-path="url(#clip-instagram-0)"><path d="M12.5901 0.645996H5.94838C2.89206 0.645996 0.413574 3.12448 0.413574 6.1808V12.8226C0.413574 15.8789 2.89206 18.3574 5.94838 18.3574H12.5901C15.6465 18.3574 18.1249 15.8789 18.1249 12.8226V6.1808C18.1249 3.12448 15.6465 0.645996 12.5901 0.645996ZM16.4645 12.8226C16.4645 14.959 14.7266 16.6969 12.5901 16.6969H5.94838C3.81194 16.6969 2.07401 14.959 2.07401 12.8226V6.1808C2.07401 4.04436 3.81194 2.30644 5.94838 2.30644H12.5901C14.7266 2.30644 16.4645 4.04436 16.4645 6.1808V12.8226Z" fill="#703FC4"/><path d="M9.26915 5.07373C6.82387 5.07373 4.84131 7.0563 4.84131 9.50157C4.84131 11.9468 6.82387 13.9294 9.26915 13.9294C11.7144 13.9294 13.697 11.9468 13.697 9.50157C13.697 7.0563 11.7144 5.07373 9.26915 5.07373ZM9.26915 12.269C7.74376 12.269 6.50175 11.027 6.50175 9.50157C6.50175 7.97507 7.74376 6.73417 9.26915 6.73417C10.7945 6.73417 12.0365 7.97507 12.0365 9.50157C12.0365 11.027 10.7945 12.269 9.26915 12.269Z" fill="#703FC4"/><path d="M14.0292 5.33187C14.3551 5.33187 14.6192 5.06772 14.6192 4.74186C14.6192 4.41601 14.3551 4.15186 14.0292 4.15186C13.7034 4.15186 13.4392 4.41601 13.4392 4.74186C13.4392 5.06772 13.7034 5.33187 14.0292 5.33187Z" fill="#703FC4"/></g><defs><clipPath id="clip-instagram-0"><rect width="17.7114" height="17.7114" fill="#703FC4" transform="translate(0.413574 0.645996)"/></clipPath></defs></svg>
