<svg width="19" height="20" viewBox="0 0 19 20" fill="none" xmlns="http://www.w3.org/2000/svg"><g clip-path="url(#clip-tw-0)"><path d="M18.9942 4.08403C18.293 4.39159 17.5459 4.59545 16.767 4.69443C17.5683 4.21601 18.1799 3.4642 18.4674 2.55803C17.7203 3.00346 16.8955 3.31808 16.0164 3.49366C15.307 2.73832 14.296 2.27051 13.193 2.27051C11.0531 2.27051 9.3303 4.00744 9.3303 6.13676C9.3303 6.44314 9.35622 6.73773 9.41986 7.01819C6.20642 6.86146 3.363 5.32133 1.45285 2.97518C1.11937 3.55376 0.923757 4.21601 0.923757 4.92893C0.923757 6.26756 1.61311 7.45419 2.64065 8.14118C2.01965 8.1294 1.41043 7.94911 0.894298 7.66512C0.894298 7.6769 0.894298 7.69222 0.894298 7.70754C0.894298 9.58587 2.23411 11.146 3.99107 11.5054C3.67645 11.5915 3.33354 11.6327 2.97767 11.6327C2.73021 11.6327 2.48039 11.6186 2.2459 11.5667C2.74671 13.0974 4.16783 14.2228 5.85762 14.2593C4.54255 15.288 2.87279 15.9079 1.06516 15.9079C0.748179 15.9079 0.444158 15.8937 0.140137 15.8548C1.85232 16.959 3.88148 17.5894 6.06973 17.5894C13.1824 17.5894 17.0711 11.6975 17.0711 6.59044C17.0711 6.41957 17.0652 6.2546 17.0569 6.09081C17.824 5.5464 18.4686 4.86647 18.9942 4.08403Z" fill="#703FC4"/></g><defs><clipPath id="clip-tw-0"><rect width="18.854" height="18.854" fill="#703FC4" transform="translate(0.140137 0.50293)"/></clipPath></defs></svg>
