<svg width="18" height="18" viewBox="0 0 18 18" fill="none" xmlns="http://www.w3.org/2000/svg">
<g clip-path="url(#clip0)">
<path d="M8.57215 0.50293H8.56787C3.84258 0.50293 0 4.34658 0 9.07294C0 10.9476 0.604186 12.6852 1.63152 14.096L0.563478 17.2798L3.85758 16.2268C5.21271 17.1245 6.82923 17.643 8.57215 17.643C13.2974 17.643 17.14 13.7982 17.14 9.07294C17.14 4.34765 13.2974 0.50293 8.57215 0.50293ZM13.5588 12.6049C13.3521 13.1887 12.5315 13.6729 11.877 13.8143C11.4292 13.9096 10.8443 13.9857 8.87532 13.1694C6.35681 12.126 4.73493 9.56679 4.60852 9.40074C4.48747 9.2347 3.59084 8.04561 3.59084 6.81581C3.59084 5.58602 4.21537 4.98719 4.46712 4.73009C4.67387 4.51905 5.0156 4.42264 5.3434 4.42264C5.44946 4.42264 5.5448 4.428 5.6305 4.43228C5.88224 4.44299 6.00865 4.45799 6.17469 4.85542C6.38145 5.35356 6.88493 6.58335 6.94492 6.70976C7.00598 6.83617 7.06705 7.00757 6.98135 7.17361C6.901 7.34501 6.8303 7.42107 6.70389 7.56676C6.57748 7.71245 6.4575 7.82386 6.3311 7.98027C6.2154 8.11631 6.08471 8.262 6.2304 8.51375C6.37609 8.76014 6.87958 9.58179 7.62088 10.2417C8.57751 11.0933 9.3531 11.3654 9.63055 11.4811C9.8373 11.5668 10.0837 11.5465 10.2347 11.3858C10.4265 11.179 10.6632 10.8362 10.9043 10.4988C11.0757 10.2567 11.2921 10.2267 11.5192 10.3124C11.7506 10.3927 12.975 10.998 13.2267 11.1233C13.4785 11.2497 13.6445 11.3097 13.7056 11.4158C13.7656 11.5218 13.7656 12.02 13.5588 12.6049Z" fill="white"/>
</g>
<defs>
<clipPath id="clip0">
<rect width="17.14" height="17.14" fill="white" transform="translate(0 0.50293)"/>
</clipPath>
</defs>
</svg>
