<svg width="20" height="20" viewBox="0 0 20 20" fill="none" xmlns="http://www.w3.org/2000/svg"><g clip-path="url(#clip-yout0)"><path fill="white" d="M19.6604 6.1591C19.6604 6.1591 19.4762 4.8592 18.9092 4.28842C18.1911 3.53721 17.3883 3.53353 17.0201 3.48934C14.3834 3.29785 10.4248 3.29785 10.4248 3.29785H10.4175C10.4175 3.29785 6.45886 3.29785 3.82225 3.48934C3.454 3.53353 2.65123 3.53721 1.93316 4.28842C1.36607 4.8592 1.18563 6.1591 1.18563 6.1591C1.18563 6.1591 0.994141 7.68731 0.994141 9.21183V10.6406C0.994141 12.1651 1.18194 13.6933 1.18194 13.6933C1.18194 13.6933 1.36607 14.9932 1.92948 15.564C2.64755 16.3152 3.59025 16.2895 4.01005 16.3705C5.51984 16.5141 10.4212 16.5583 10.4212 16.5583C10.4212 16.5583 14.3834 16.5509 17.0201 16.3631C17.3883 16.3189 18.1911 16.3152 18.9092 15.564C19.4762 14.9932 19.6604 13.6933 19.6604 13.6933C19.6604 13.6933 19.8482 12.1688 19.8482 10.6406V9.21183C19.8482 7.68731 19.6604 6.1591 19.6604 6.1591ZM8.47315 12.375V7.07602L13.5659 9.73474L8.47315 12.375Z"/></g><defs><clipPath id="clip-yout0"><rect width="18.854" height="18.854"  transform="translate(0.994141 0.50293)"/></clipPath></defs></svg>
