<?xml version="1.0" encoding="utf-8"?>
<!-- Generator: Adobe Illustrator 21.0.2, SVG Export Plug-In . SVG Version: 6.00 Build 0)  -->
<svg version="1.1" id="Layer_1" xmlns="http://www.w3.org/2000/svg" xmlns:xlink="http://www.w3.org/1999/xlink" x="0px" y="0px"
	 viewBox="0 0 55.3 57.5" style="enable-background:new 0 0 55.3 57.5;" xml:space="preserve">
<style type="text/css">
	.st0{fill:#703FC4;}
	.st1{fill:#0C1620;}
</style>
<path class="st0" d="M35.7,1.1c0,4.5-0.9,9-2.6,13.1c-1.7,4.2-4.3,7.9-7.4,11.1s-7,5.7-11.1,7.4c-4.2,1.7-8.6,2.6-13.1,2.6V18.6
	c2.3,0,4.6-0.5,6.7-1.3c2.1-0.9,4.1-2.2,5.7-3.8s2.9-3.6,3.8-5.7S19,3.4,19,1.1C19,1.1,35.7,1.1,35.7,1.1z"/>
<g>
	<g>
		<rect x="34.8" y="17.9" class="st1" width="19.2" height="19.2"/>
		<rect x="16" y="37.1" class="st1" width="19.2" height="19.2"/>
	</g>
</g>
</svg>
