<svg width="172" height="66" viewBox="0 0 172 66" fill="none" xmlns="http://www.w3.org/2000/svg"><g clip-path="url(#clip0)"><mask id="path-1-inside-1" fill="white"><path d="M35.6521 5.32603C35.6521 9.83379 34.7642 14.2974 33.0391 18.462C31.3141 22.6267 28.7857 26.4107 25.5982 29.5982C22.4107 32.7857 18.6267 35.3141 14.462 37.0391C10.2974 38.7642 5.83378 39.6521 1.32603 39.6521V22.8368C3.62558 22.8368 5.90261 22.3839 8.02711 21.5039C10.1516 20.6239 12.082 19.334 13.708 17.708C15.334 16.082 16.6239 14.1516 17.5039 12.0271C18.3839 9.90261 18.8368 7.62558 18.8368 5.32603H35.6521Z"/></mask><path d="M35.6521 5.32603C35.6521 9.83379 34.7642 14.2974 33.0391 18.462C31.3141 22.6267 28.7857 26.4107 25.5982 29.5982C22.4107 32.7857 18.6267 35.3141 14.462 37.0391C10.2974 38.7642 5.83378 39.6521 1.32603 39.6521V22.8368C3.62558 22.8368 5.90261 22.3839 8.02711 21.5039C10.1516 20.6239 12.082 19.334 13.708 17.708C15.334 16.082 16.6239 14.1516 17.5039 12.0271C18.3839 9.90261 18.8368 7.62558 18.8368 5.32603H35.6521Z" stroke="#703FC4" stroke-width="72" mask="url(#path-1-inside-1)"/><rect x="34.8044" y="22.1357" width="19.2113" height="19.2113" fill="#0C1620"/><rect x="16" y="41.3472" width="19.2113" height="19.2113" fill="#0C1620"/></g><path d="M75.17 30.42C72.39 30.42 70.14 29.74 68.42 28.38C66.7 27 65.82 25.18 65.78 22.92H69.59C69.63 24.1 70.16 25.05 71.18 25.77C72.2 26.47 73.53 26.82 75.17 26.82C76.71 26.82 77.95 26.56 78.89 26.04C79.85 25.52 80.33 24.84 80.33 24C80.33 23.44 80.08 22.97 79.58 22.59C79.1 22.19 78.46 21.88 77.66 21.66C76.88 21.44 76.01 21.23 75.05 21.03C74.11 20.83 73.16 20.59 72.2 20.31C71.24 20.03 70.36 19.69 69.56 19.29C68.78 18.89 68.14 18.33 67.64 17.61C67.16 16.89 66.92 16.04 66.92 15.06C66.92 13.24 67.67 11.78 69.17 10.68C70.69 9.56 72.69 9 75.17 9C77.23 9 79.04 9.54 80.6 10.62C82.16 11.7 83.18 13.13 83.66 14.91L79.97 15.84C79.73 14.86 79.17 14.08 78.29 13.5C77.41 12.9 76.37 12.6 75.17 12.6C73.89 12.6 72.86 12.83 72.08 13.29C71.3 13.73 70.91 14.32 70.91 15.06C70.91 15.48 71.15 15.85 71.63 16.17C72.13 16.47 72.77 16.72 73.55 16.92C74.35 17.12 75.22 17.33 76.16 17.55C77.12 17.75 78.08 18.01 79.04 18.33C80 18.65 80.87 19.04 81.65 19.5C82.45 19.94 83.09 20.55 83.57 21.33C84.07 22.09 84.32 22.98 84.32 24C84.32 25.92 83.48 27.47 81.8 28.65C80.12 29.83 77.91 30.42 75.17 30.42ZM86.5447 30V9.42H90.5647V17.64H100.045V9.42H104.065V30H100.045V21.24H90.5647V30H86.5447ZM122.893 30L120.823 24.72H112.483L110.443 30H106.123L114.613 9.42H118.753L127.183 30H122.893ZM113.893 21.12H119.413L116.653 14.04L113.893 21.12ZM128.996 30V9.42H133.406L143.516 24.39V9.42H147.536V30H143.126L133.016 15V30H128.996ZM166.34 30L164.27 24.72H155.93L153.89 30H149.57L158.06 9.42H162.2L170.63 30H166.34ZM157.34 21.12H162.86L160.1 14.04L157.34 21.12Z" fill="#703FC4"/><path d="M73.475 60.35C71.1583 60.35 69.2833 59.7833 67.85 58.65C66.4167 57.5 65.6833 55.9833 65.65 54.1H68.825C68.8583 55.0833 69.3 55.875 70.15 56.475C71 57.0583 72.1083 57.35 73.475 57.35C74.7583 57.35 75.7917 57.1333 76.575 56.7C77.375 56.2667 77.775 55.7 77.775 55C77.775 54.5333 77.5667 54.1417 77.15 53.825C76.75 53.4917 76.2167 53.2333 75.55 53.05C74.9 52.8667 74.175 52.6917 73.375 52.525C72.5917 52.3583 71.8 52.1583 71 51.925C70.2 51.6917 69.4667 51.4083 68.8 51.075C68.15 50.7417 67.6167 50.275 67.2 49.675C66.8 49.075 66.6 48.3667 66.6 47.55C66.6 46.0333 67.225 44.8167 68.475 43.9C69.7417 42.9667 71.4083 42.5 73.475 42.5C75.1917 42.5 76.7 42.95 78 43.85C79.3 44.75 80.15 45.9417 80.55 47.425L77.475 48.2C77.275 47.3833 76.8083 46.7333 76.075 46.25C75.3417 45.75 74.475 45.5 73.475 45.5C72.4083 45.5 71.55 45.6917 70.9 46.075C70.25 46.4417 69.925 46.9333 69.925 47.55C69.925 47.9 70.125 48.2083 70.525 48.475C70.9417 48.725 71.475 48.9333 72.125 49.1C72.7917 49.2667 73.5167 49.4417 74.3 49.625C75.1 49.7917 75.9 50.0083 76.7 50.275C77.5 50.5417 78.225 50.8667 78.875 51.25C79.5417 51.6167 80.075 52.125 80.475 52.775C80.8917 53.4083 81.1 54.15 81.1 55C81.1 56.6 80.4 57.8917 79 58.875C77.6 59.8583 75.7583 60.35 73.475 60.35ZM86.3971 60V45.85H81.4471V42.85H94.6971V45.85H89.7471V60H86.3971ZM104.196 60.3C101.996 60.3 100.221 59.6833 98.8705 58.45C97.5205 57.2 96.8455 55.5667 96.8455 53.55V42.85H100.196V53.55C100.196 54.6833 100.562 55.5917 101.296 56.275C102.029 56.9583 102.996 57.3 104.196 57.3C105.379 57.3 106.329 56.9583 107.046 56.275C107.779 55.5917 108.146 54.6833 108.146 53.55V42.85H111.496V53.55C111.496 55.5667 110.821 57.2 109.471 58.45C108.137 59.6833 106.379 60.3 104.196 60.3ZM114.204 60V42.85H120.879C123.496 42.85 125.604 43.6417 127.204 45.225C128.804 46.7917 129.604 48.8583 129.604 51.425C129.604 53.9917 128.804 56.0667 127.204 57.65C125.604 59.2167 123.496 60 120.879 60H114.204ZM117.554 57H120.879C122.496 57 123.796 56.4917 124.779 55.475C125.762 54.4417 126.254 53.0917 126.254 51.425C126.254 49.7583 125.762 48.4167 124.779 47.4C123.796 46.3667 122.496 45.85 120.879 45.85H117.554V57ZM131.709 60V42.85H135.059V60H131.709ZM152.363 57.9C150.73 59.5333 148.572 60.35 145.888 60.35C143.205 60.35 141.047 59.5333 139.413 57.9C137.78 56.2667 136.963 54.1083 136.963 51.425C136.963 48.7417 137.78 46.5833 139.413 44.95C141.047 43.3167 143.205 42.5 145.888 42.5C148.572 42.5 150.73 43.3167 152.363 44.95C153.997 46.5833 154.813 48.7417 154.813 51.425C154.813 54.1083 153.997 56.2667 152.363 57.9ZM141.838 55.725C142.872 56.8083 144.222 57.35 145.888 57.35C147.555 57.35 148.897 56.8083 149.913 55.725C150.947 54.6417 151.463 53.2083 151.463 51.425C151.463 49.6417 150.947 48.2083 149.913 47.125C148.897 46.0417 147.555 45.5 145.888 45.5C144.222 45.5 142.872 46.0417 141.838 47.125C140.822 48.2083 140.313 49.6417 140.313 51.425C140.313 53.2083 140.822 54.6417 141.838 55.725Z" fill="#0C1620"/><defs><clipPath id="clip0"><rect width="58" height="58" fill="white" transform="translate(0 4)"/></clipPath></defs></svg>
