<svg width="1872" height="1390" viewBox="0 0 1872 1390" fill="none" xmlns="http://www.w3.org/2000/svg">
<g filter="url(#filter0_f)">
<path d="M1621.21 999.126L1571.57 837.07L1247.46 428.282L894.148 356.744L348.123 250.167L613.836 365.504L974.445 438.502L1400.75 717.354C1392.62 856.23 1365.06 952.316 1322.16 1017.3L1170.08 918.828L1093.03 1087.31L500.359 997.598L433.969 1053.6C372.504 1049.89 310.908 1050.57 250.122 1058.33L346.448 1127.43L433.969 1053.6C801.793 1075.83 1164.95 1255.42 1322.16 1017.3L1373.01 1050.22L1621.21 999.126Z" fill="url(#paint0_linear)" fill-opacity="0.5"/>
</g>
<defs>
<filter id="filter0_f" x="0.12207" y="0.167236" width="1871.08" height="1389.24" filterUnits="userSpaceOnUse" color-interpolation-filters="sRGB">
<feFlood flood-opacity="0" result="BackgroundImageFix"/>
<feBlend mode="normal" in="SourceGraphic" in2="BackgroundImageFix" result="shape"/>
<feGaussianBlur stdDeviation="125" result="effect1_foregroundBlur"/>
</filter>
<linearGradient id="paint0_linear" x1="940.866" y1="250.167" x2="940.866" y2="1209.36" gradientUnits="userSpaceOnUse">
<stop stop-color="#703FC4"/>
<stop offset="1" stop-color="#A13FC4"/>
</linearGradient>
</defs>
</svg>
