<svg width="57" height="58" viewBox="0 0 57 58" fill="none" xmlns="http://www.w3.org/2000/svg">
<path d="M10.988 4.01733C9.19603 5.38533 9.12137 11.0473 9.30803 13.7073H42.348C45.932 13.7073 46.828 16.7473 46.828 18.2674V35.3674C52.204 35.8234 53.9213 32.8974 54.108 31.3774V8.00742C54.108 3.44749 51.1213 2.6874 49.628 2.87733H20.508C17.708 2.87733 13.228 2.30733 10.988 4.01733Z" fill="#703FC4"/>
<path d="M48.956 1.7373H14.908C13.2453 1.73948 11.6512 2.41278 10.4754 3.60954C9.29964 4.8063 8.63816 6.42883 8.63602 8.1213V12.6813H7.74002C6.07723 12.6835 4.48317 13.3568 3.3074 14.5535C2.13164 15.7503 1.47016 17.3729 1.46802 19.0653V40.9533C1.4699 42.488 2.01401 43.9708 3.001 45.1309C3.988 46.2911 5.35202 47.0513 6.84402 47.2725V55.5453C6.84402 55.7081 6.88682 55.8679 6.96801 56.0081C7.04919 56.1485 7.16577 56.2641 7.30566 56.343C7.44556 56.4218 7.60365 56.4613 7.76354 56.457C7.92342 56.4527 8.07927 56.405 8.2149 56.3187L22.3332 47.3373H41.788C43.4508 47.3351 45.0449 46.6618 46.2206 45.4651C47.3964 44.2683 48.0579 42.6457 48.06 40.9533V36.3933H48.956C50.6188 36.3911 52.2129 35.7178 53.3886 34.5211C54.5644 33.3243 55.2259 31.7017 55.228 30.0093V8.1213C55.2259 6.42883 54.5644 4.8063 53.3886 3.60954C52.2129 2.41278 50.6188 1.73948 48.956 1.7373ZM46.268 40.9533C46.2666 42.1623 45.7941 43.3213 44.9543 44.1761C44.1145 45.031 42.9758 45.5118 41.788 45.5133H22.076C21.9081 45.5133 21.7435 45.5613 21.6011 45.6519L8.63602 53.9037V46.4253C8.63602 46.1834 8.54161 45.9514 8.37359 45.7804C8.20556 45.6094 7.97765 45.5133 7.74002 45.5133C6.55228 45.5118 5.41361 45.031 4.57376 44.1761C3.7339 43.3213 3.26144 42.1623 3.26002 40.9533V19.0653C3.26144 17.8563 3.7339 16.6973 4.57376 15.8425C5.41361 14.9876 6.55228 14.5068 7.74002 14.5053H41.788C42.9758 14.5068 44.1145 14.9876 44.9543 15.8425C45.7941 16.6973 46.2666 17.8563 46.268 19.0653V40.9533ZM53.436 30.0093C53.4346 31.2183 52.9621 32.3773 52.1223 33.2321C51.2825 34.087 50.1438 34.5678 48.956 34.5693H48.06V19.0653C48.0579 17.3729 47.3964 15.7503 46.2206 14.5535C45.0449 13.3568 43.4508 12.6835 41.788 12.6813H10.428V8.1213C10.4294 6.91236 10.9019 5.75335 11.7418 4.8985C12.5816 4.04365 13.7203 3.56275 14.908 3.5613H48.956C50.1438 3.56275 51.2825 4.04365 52.1223 4.8985C52.9621 5.75335 53.4346 6.91236 53.436 8.1213V30.0093Z" fill="#232323" stroke="#232323" stroke-width="0.4"/>
<path d="M7.62793 33.6574L17.7079 23.9674L24.4279 30.8074L28.3479 23.9674H35.0679L41.2279 17.1274" stroke="#232323" stroke-width="1.1" stroke-linecap="round" stroke-linejoin="round"/>
<path d="M11.0439 37.7043V42.1503" stroke="#232323" stroke-width="1.1" stroke-linecap="round"/>
<path d="M16.6438 34.2844V42.1504" stroke="#232323" stroke-width="1.1" stroke-linecap="round"/>
<path d="M22.2439 36.5645V42.1504" stroke="#232323" stroke-width="1.1" stroke-linecap="round"/>
<path d="M27.844 32.0044V42.1504" stroke="#232323" stroke-width="1.1" stroke-linecap="round"/>
<path d="M33.4438 32.0044V42.1504" stroke="#232323" stroke-width="1.1" stroke-linecap="round"/>
<path d="M39.0439 26.3044V42.1504" stroke="#232323" stroke-width="1.1" stroke-linecap="round"/>
</svg>
