<svg width="54" height="55" viewBox="0 0 54 55" fill="none" xmlns="http://www.w3.org/2000/svg">
<g clip-path="url(#clip0)">
<path d="M28.5042 25.4099L20.775 17.5349C22.2472 15.6599 26.075 11.0099 29.6084 7.40991C33.1417 3.80991 40.65 1.78491 43.9625 1.22241C45.7292 4.82241 41.3862 12.4724 38.9938 15.8474L28.5042 25.4099Z" fill="#703FC4"/>
<path d="M23.5354 54.0974C22.9259 54.0974 22.4313 53.5934 22.4313 52.9724V43.9724C22.4313 43.3514 22.9259 42.8474 23.5354 42.8474C24.1449 42.8474 24.6396 43.3514 24.6396 43.9724V52.9724C24.6396 53.5934 24.1449 54.0974 23.5354 54.0974Z" fill="#232323"/>
<path d="M30.1604 54.0974C29.5509 54.0974 29.0563 53.5934 29.0563 52.9724V43.9724C29.0563 43.3514 29.5509 42.8474 30.1604 42.8474C30.7699 42.8474 31.2646 43.3514 31.2646 43.9724V52.9724C31.2646 53.5934 30.7699 54.0974 30.1604 54.0974Z" fill="#232323"/>
<path d="M36.7854 54.0974H16.9104C16.3009 54.0974 15.8063 53.5934 15.8063 52.9724C15.8063 52.3514 16.3009 51.8474 16.9104 51.8474H36.7854C37.3949 51.8474 37.8896 52.3514 37.8896 52.9724C37.8896 53.5934 37.3949 54.0974 36.7854 54.0974Z" fill="#232323"/>
<path d="M50.0354 45.0974H3.6604C1.83411 45.0974 0.3479 43.5832 0.3479 41.7224V12.4724C0.3479 10.6117 1.83411 9.09741 3.6604 9.09741H12.4937C13.1032 9.09741 13.5979 9.60141 13.5979 10.2224C13.5979 10.8434 13.1032 11.3474 12.4937 11.3474H3.6604C3.05311 11.3474 2.55623 11.8514 2.55623 12.4724V41.7224C2.55623 42.3434 3.05311 42.8474 3.6604 42.8474H50.0354C50.6427 42.8474 51.1396 42.3434 51.1396 41.7224V12.4724C51.1396 11.8514 50.6427 11.3474 50.0354 11.3474H47.8271C47.2176 11.3474 46.7229 10.8434 46.7229 10.2224C46.7229 9.60141 47.2176 9.09741 47.8271 9.09741H50.0354C51.8617 9.09741 53.3479 10.6117 53.3479 12.4724V41.7224C53.3479 43.5832 51.8617 45.0974 50.0354 45.0974Z" fill="#232323"/>
<path d="M28.5239 26.7329C28.2412 26.7329 27.9586 26.6227 27.7421 26.4044L19.7988 18.3112C19.3814 17.8882 19.3637 17.2064 19.759 16.7632L26.267 9.40341C30.8868 3.96516 38.2163 0.216662 44.4923 0.0974121C44.8611 0.101912 45.0842 0.212162 45.294 0.425912C45.506 0.641912 45.623 0.936662 45.6164 1.24266C45.4971 7.63716 41.8203 15.1072 36.465 19.8299L29.2593 26.4449C29.0517 26.6384 28.7867 26.7329 28.5239 26.7329ZM22.1021 17.4764L28.5636 24.0599L35.0076 18.1447C39.5921 14.1014 42.8317 7.92741 43.3418 2.41716C37.9358 2.93916 31.8783 6.23766 27.9232 10.8929L22.1021 17.4764Z" fill="#232323"/>
<path d="M31.4943 32.0697C31.3949 32.0697 31.2934 32.0562 31.194 32.0269C30.8075 31.9167 30.5116 31.6039 30.4189 31.2057L28.8598 24.5682C28.7184 23.9629 29.085 23.3577 29.6769 23.2114C30.2731 23.0629 30.8671 23.4409 31.0085 24.0439L32.0442 28.4494C33.961 25.3939 34.3453 21.4812 34.385 19.1907C34.3961 18.5719 34.9327 18.1174 35.5091 18.0859C36.1164 18.0972 36.6022 18.6124 36.5912 19.2312C36.4984 24.5547 34.9658 28.9962 32.2739 31.7389C32.0641 31.9549 31.7814 32.0697 31.4943 32.0697Z" fill="#232323"/>
<path d="M21.8569 17.2044C21.773 17.2044 21.6869 17.1954 21.6008 17.1729L15.0862 15.5822C14.6953 15.4877 14.3884 15.1884 14.2802 14.7947C14.1719 14.4032 14.2802 13.9824 14.5628 13.6944C17.2548 10.9517 21.6118 9.39015 26.8389 9.29565C27.4153 9.32715 27.9519 9.7794 27.963 10.4004C27.974 11.0214 27.4882 11.5344 26.8787 11.5457C24.6306 11.5862 20.7925 11.9754 17.7936 13.9307L22.1175 14.9859C22.7116 15.1299 23.0781 15.7374 22.9346 16.3427C22.8109 16.8579 22.3582 17.2044 21.8569 17.2044Z" fill="#232323"/>
<path d="M13.5982 33.8473C13.3089 33.8473 13.0262 33.7326 12.8164 33.5188C12.5293 33.2263 12.4233 32.7966 12.5404 32.4006C12.9048 31.1586 14.7973 24.8901 16.2813 23.3781C18.0723 21.5556 20.9784 21.5556 22.7694 23.3781C24.5581 25.2006 24.5559 28.1661 22.7694 29.9886C21.2854 31.4983 15.133 33.4311 13.914 33.8023C13.8124 33.8316 13.7042 33.8473 13.5982 33.8473ZM19.5275 24.2601C18.9203 24.2601 18.3085 24.4941 17.8448 24.9666C17.2198 25.6056 16.1378 28.4249 15.2964 30.9921C17.8183 30.1326 20.5853 29.0346 21.2103 28.3956C22.1356 27.4506 22.1356 25.9116 21.2103 24.9689C20.7443 24.4964 20.137 24.2601 19.5275 24.2601ZM21.9898 29.1921H22.0119H21.9898Z" fill="#232323"/>
</g>
<defs>
<clipPath id="clip0">
<rect width="53" height="54" fill="white" transform="translate(0.3479 0.0974121)"/>
</clipPath>
</defs>
</svg>
