<svg width="55" height="57" viewBox="0 0 55 57" fill="none" xmlns="http://www.w3.org/2000/svg">
<g clip-path="url(#clip0)">
<path d="M19.3689 23.5763C19.3689 22.2876 20.3762 21.2429 21.6189 21.2429H32.8689C34.1116 21.2429 35.1189 22.2876 35.1189 23.5763V49.2429H19.3689V23.5763Z" fill="#703FC4"/>
<path d="M24.9939 4.32617L21.0564 5.49284L23.3064 8.99284V13.0762L27.2439 11.9095L31.1814 13.0762V8.99284L33.4314 5.49284L29.4939 4.9095L27.2439 0.826172L24.9939 4.32617Z" fill="#703FC4"/>
<path d="M51.5451 48.9082V31.9756C51.5451 30.9855 51.1658 30.0359 50.4907 29.3357C49.8155 28.6356 48.8998 28.2423 47.9451 28.2423H38.0451C37.4112 28.2462 36.7899 28.4252 36.2451 28.7612V24.509C36.2451 23.5188 35.8658 22.5693 35.1907 21.869C34.5156 21.1689 33.5998 20.7756 32.6451 20.7756H31.9404C31.5057 20.5292 29.9451 19.3542 29.9451 15.1756V14.106C30.2279 14.2187 30.5334 14.2561 30.8337 14.2147C31.1341 14.1732 31.4195 14.0544 31.6641 13.869C31.9302 13.6674 32.1364 13.3924 32.2593 13.0752C32.382 12.7581 32.4166 12.4116 32.3589 12.0751L31.8882 9.31709L33.8871 7.35709C34.1311 7.12172 34.3053 6.81906 34.3894 6.48464C34.4733 6.15021 34.4636 5.79788 34.3614 5.46896C34.2583 5.1332 34.0653 4.83483 33.8046 4.60872C33.544 4.38261 33.2268 4.23813 32.8899 4.19216L30.1044 3.78896L28.8651 1.26243C28.7113 0.954467 28.4788 0.696264 28.1932 0.516033C27.9075 0.335802 27.5795 0.240479 27.2451 0.240479C26.9107 0.240479 26.5827 0.335802 26.297 0.516033C26.0113 0.696264 25.7788 0.954467 25.6251 1.26243L24.3858 3.78896L21.6003 4.19589C21.2639 4.24156 20.9469 4.38549 20.6863 4.6109C20.4258 4.83631 20.2324 5.1339 20.1288 5.46896C20.0269 5.79762 20.0174 6.14957 20.1014 6.48363C20.1855 6.81768 20.3594 7.12001 20.6031 7.35523L22.602 9.31523L22.1313 12.0732C22.0732 12.4099 22.1075 12.7569 22.2304 13.0744C22.3532 13.3919 22.5597 13.6673 22.8261 13.869C23.0677 14.0605 23.3533 14.1835 23.6547 14.2259C23.9561 14.2683 24.263 14.2285 24.5451 14.1107V15.1756C24.5451 19.3906 22.9584 20.5488 22.5543 20.7756H21.8451C20.8903 20.7756 19.9746 21.1689 19.2995 21.869C18.6244 22.5693 18.2451 23.5188 18.2451 24.509V32.4946C17.7002 32.1587 17.0789 31.9795 16.4451 31.9756H6.54509C5.5903 31.9756 4.67463 32.3689 3.9995 33.0692C3.32437 33.7693 2.94509 34.7188 2.94509 35.709V48.9082C2.09762 49.1344 1.35889 49.6735 0.867564 50.4245C0.376235 51.1755 0.166084 52.0865 0.276555 52.9868C0.387027 53.887 0.810525 54.7146 1.46756 55.3139C2.12459 55.9133 2.97 56.2435 3.84509 56.2423H50.6451C51.5202 56.2435 52.3655 55.9133 53.0226 55.3139C53.6796 54.7146 54.1032 53.887 54.2137 52.9868C54.3241 52.0865 54.1139 51.1755 53.6226 50.4245C53.1313 49.6735 52.3925 49.1344 51.5451 48.9082ZM38.0451 30.109H47.9451C48.4225 30.109 48.8803 30.3057 49.2179 30.6557C49.5555 31.0058 49.7451 31.4805 49.7451 31.9756V48.7756H36.2451V31.9756C36.2451 31.4805 36.4347 31.0058 36.7723 30.6557C37.1098 30.3057 37.5677 30.109 38.0451 30.109ZM23.9034 12.3999L24.4551 9.14723C24.4807 8.99498 24.4693 8.83853 24.4222 8.69191C24.3752 8.5453 24.2936 8.41311 24.1851 8.30723L21.8451 6.04576L25.095 5.57163C25.2384 5.5507 25.3747 5.49421 25.4925 5.40696C25.6104 5.31971 25.7062 5.20427 25.7718 5.07043L27.2586 2.10896L28.7121 5.06856C28.7778 5.2024 28.8735 5.31784 28.9913 5.4051C29.1092 5.49234 29.2455 5.54883 29.3889 5.56976L32.6514 6.00189L30.2997 8.30536C30.1911 8.41125 30.1096 8.54343 30.0625 8.69005C30.0154 8.83666 30.0041 8.99311 30.0297 9.14536L30.5598 12.3682L27.6519 10.8328C27.5253 10.766 27.3853 10.7311 27.2433 10.7311C27.1013 10.7311 26.9612 10.766 26.8347 10.8328L25.1121 11.7522C25.0914 11.7606 25.0752 11.7727 25.0554 11.782L23.9034 12.3999ZM26.3451 15.1756V13.1886L27.2451 12.7135L28.1451 13.1886V15.1756C28.0467 17.1361 28.5058 19.0834 29.4654 20.7756H25.0248C25.9843 19.0834 26.4434 17.1361 26.3451 15.1756ZM20.0451 24.509C20.0451 24.0138 20.2347 23.5391 20.5723 23.189C20.9098 22.839 21.3677 22.6423 21.8451 22.6423H32.6451C33.1225 22.6423 33.5803 22.839 33.9179 23.189C34.2555 23.5391 34.4451 24.0138 34.4451 24.509V48.7756H20.0451V24.509ZM4.74509 35.709C4.74509 35.2138 4.93473 34.7391 5.27229 34.389C5.60985 34.039 6.0677 33.8423 6.54509 33.8423H16.4451C16.9225 33.8423 17.3803 34.039 17.7179 34.389C18.0555 34.7391 18.2451 35.2138 18.2451 35.709V48.7756H4.74509V35.709ZM50.6451 54.3756H3.84509C3.3677 54.3756 2.90985 54.1789 2.57229 53.8289C2.23473 53.4788 2.04509 53.004 2.04509 52.509C2.04509 52.0138 2.23473 51.5391 2.57229 51.189C2.90985 50.839 3.3677 50.6423 3.84509 50.6423H50.6451C51.1225 50.6423 51.5803 50.839 51.9179 51.189C52.2555 51.5391 52.4451 52.0138 52.4451 52.509C52.4451 53.004 52.2555 53.4788 51.9179 53.8289C51.5803 54.1789 51.1225 54.3756 50.6451 54.3756Z" fill="#232323"/>
<path d="M11.044 36.6431C10.3279 36.6431 9.64116 36.9381 9.13481 37.4631C8.62846 37.9882 8.344 38.7005 8.344 39.4431C8.344 39.6906 8.43882 39.9281 8.6076 40.1031C8.77638 40.2781 9.0053 40.3764 9.244 40.3764C9.48269 40.3764 9.71161 40.2781 9.88039 40.1031C10.0492 39.9281 10.144 39.6906 10.144 39.4431C10.144 39.1955 10.2388 38.9581 10.4076 38.7831C10.5764 38.6081 10.8053 38.5097 11.044 38.5097C11.2827 38.5097 11.5117 38.6081 11.6804 38.7831C11.8492 38.9581 11.944 39.1955 11.944 39.4431C11.944 41.3489 9.604 43.5927 8.704 44.2964C8.55288 44.4139 8.44126 44.5778 8.38493 44.7648C8.32861 44.9517 8.33044 45.1524 8.39018 45.3382C8.44992 45.5241 8.56451 45.6857 8.71776 45.8002C8.871 45.9148 9.0551 45.9764 9.244 45.9764H12.844C13.0827 45.9764 13.3117 45.8781 13.4804 45.7031C13.6492 45.5279 13.744 45.2906 13.744 45.0431C13.744 44.7955 13.6492 44.5581 13.4804 44.3831C13.3117 44.2081 13.0827 44.1097 12.844 44.1097H11.557C12.6145 42.9207 13.744 41.2323 13.744 39.4431C13.744 38.7005 13.4595 37.9882 12.9532 37.4631C12.4469 36.9381 11.7601 36.6431 11.044 36.6431Z" fill="#232323"/>
<path d="M43.4439 42.243C43.2052 42.243 42.9762 42.1446 42.8075 41.9696C42.6387 41.7945 42.5439 41.5572 42.5439 41.3096C42.5439 41.0621 42.4491 40.8246 42.2803 40.6496C42.1116 40.4746 41.8826 40.3763 41.6439 40.3763C41.4052 40.3763 41.1762 40.4746 41.0075 40.6496C40.8387 40.8246 40.7439 41.0621 40.7439 41.3096C40.7437 41.7636 40.85 42.2108 41.0536 42.6127C41.2571 43.0146 41.5519 43.3592 41.9124 43.6167C42.2729 43.8742 42.6885 44.0369 43.123 44.0908C43.5577 44.1449 43.9985 44.0884 44.4075 43.9263C44.8164 43.7643 45.1812 43.5016 45.4705 43.1609C45.7597 42.8201 45.9648 42.4115 46.0678 41.9703C46.171 41.5291 46.1691 41.0685 46.0624 40.6282C45.9558 40.1879 45.7474 39.7812 45.4554 39.443C45.7474 39.1047 45.9558 38.6979 46.0624 38.2576C46.1691 37.8173 46.171 37.3567 46.0678 36.9156C45.9648 36.4744 45.7597 36.0658 45.4705 35.725C45.1812 35.3842 44.8164 35.1215 44.4075 34.9596C43.9985 34.7975 43.5577 34.7411 43.123 34.795C42.6885 34.849 42.2729 35.0116 41.9124 35.2692C41.5519 35.5267 41.2571 35.8712 41.0536 36.2731C40.85 36.675 40.7437 37.1223 40.7439 37.5763C40.7439 37.8239 40.8387 38.0612 41.0075 38.2363C41.1762 38.4113 41.4052 38.5096 41.6439 38.5096C41.8826 38.5096 42.1116 38.4113 42.2803 38.2363C42.4491 38.0612 42.5439 37.8239 42.5439 37.5763C42.5441 37.4168 42.5837 37.26 42.659 37.1209C42.7341 36.9819 42.8425 36.8651 42.9736 36.7817C43.1048 36.6984 43.2543 36.6512 43.408 36.6449C43.5616 36.6385 43.7143 36.6732 43.8514 36.7454C43.9885 36.8176 44.1055 36.9251 44.1912 37.0575C44.277 37.1899 44.3285 37.3428 44.341 37.5019C44.3533 37.6608 44.3263 37.8204 44.2624 37.9655C44.1985 38.1105 44.0999 38.2362 43.9758 38.3304C43.809 38.4596 43.6734 38.6275 43.5801 38.8204C43.4868 39.0135 43.4382 39.2265 43.4382 39.4425C43.4382 39.6584 43.4868 39.8714 43.5801 40.0644C43.6734 40.2575 43.809 40.4253 43.9758 40.5546C44.1297 40.6705 44.2443 40.8342 44.3029 41.0219C44.3616 41.2096 44.3613 41.4118 44.3023 41.5994C44.2432 41.787 44.1282 41.9504 43.974 42.066C43.8198 42.1816 43.6342 42.2435 43.4439 42.243Z" fill="#232323"/>
<path d="M25.4439 40.3758H29.0439C29.2827 40.3758 29.5115 40.2776 29.6804 40.1025C29.8491 39.9275 29.9439 39.69 29.9439 39.4425C29.9439 39.195 29.8491 38.9576 29.6804 38.7826C29.5115 38.6075 29.2827 38.5091 29.0439 38.5091H28.1439V31.9758C28.1439 31.7912 28.0911 31.6109 27.9922 31.4575C27.8933 31.3039 27.7528 31.1843 27.5883 31.1138C27.4239 31.0432 27.2429 31.0246 27.0684 31.0607C26.8938 31.0966 26.7335 31.1855 26.6076 31.3159L25.7076 32.2493C25.5818 32.3798 25.4961 32.5461 25.4614 32.7271C25.4267 32.9082 25.4445 33.0958 25.5127 33.2664C25.5807 33.4368 25.6961 33.5825 25.844 33.6852C25.992 33.7878 26.166 33.8425 26.3439 33.8425V38.5091H25.4439C25.2052 38.5091 24.9763 38.6075 24.8075 38.7826C24.6388 38.9576 24.5439 39.195 24.5439 39.4425C24.5439 39.69 24.6388 39.9275 24.8075 40.1025C24.9763 40.2776 25.2052 40.3758 25.4439 40.3758Z" fill="#CBACFF"/>
</g>
<defs>
<clipPath id="clip0">
<rect width="54" height="56" fill="white" transform="translate(0.243896 0.24292)"/>
</clipPath>
</defs>
</svg>
