<svg width="55" height="57" viewBox="0 0 55 57" fill="none" xmlns="http://www.w3.org/2000/svg">
<g clip-path="url(#clip0)">
<path d="M39.7229 51.5763C47.8001 51.5763 54.3479 44.7859 54.3479 36.4096C54.3479 28.0333 47.8001 21.2429 39.7229 21.2429C31.6457 21.2429 25.0979 28.0333 25.0979 36.4096C25.0979 44.7859 31.6457 51.5763 39.7229 51.5763Z" fill="#703FC4"/>
<path d="M11.7357 32.0989C11.5394 31.8955 11.2682 31.7783 10.9897 31.7783C10.7122 31.7783 10.4399 31.8955 10.2437 32.0989C10.0474 32.3024 9.93457 32.5847 9.93457 32.8724C9.93457 33.1614 10.0475 33.4427 10.2437 33.6472C10.44 33.8507 10.7122 33.9666 10.9897 33.9666C11.2672 33.9666 11.5395 33.8507 11.7357 33.6472C11.9319 33.4426 12.0448 33.1614 12.0448 32.8724C12.0448 32.5847 11.9319 32.3024 11.7357 32.0989Z" fill="#232323"/>
<path d="M21.686 32.0989C21.4898 31.8955 21.2176 31.7783 20.94 31.7783C20.6625 31.7783 20.3902 31.8955 20.194 32.0989C19.9977 32.3024 19.8849 32.5847 19.8849 32.8724C19.8849 33.1614 19.9977 33.4427 20.194 33.6472C20.3904 33.8507 20.6625 33.9666 20.94 33.9666C21.2175 33.9666 21.4898 33.8507 21.686 33.6472C21.8822 33.4426 21.9952 33.1602 21.9952 32.8724C21.9952 32.5847 21.8822 32.3024 21.686 32.0989Z" fill="#232323"/>
<path d="M19.7504 38.1082C19.1875 37.9517 18.6092 38.2991 18.4587 38.8828C18.1571 40.0533 17.1316 40.8711 15.9648 40.8711C14.7979 40.8711 13.7725 40.0533 13.4708 38.8828C13.3205 38.2989 12.7421 37.9515 12.179 38.1082C11.6161 38.2643 11.2816 38.8638 11.432 39.4477C11.9798 41.5743 13.8437 43.0596 15.9649 43.0596C18.0859 43.0596 19.9498 41.5743 20.4976 39.4477C20.6478 38.8639 20.3134 38.2641 19.7504 38.1082Z" fill="#232323"/>
<path d="M27.3608 4.61743C26.7779 4.61743 26.3055 5.10733 26.3055 5.71173V12.6586C26.3055 13.263 26.7779 13.7529 27.3608 13.7529C27.9435 13.7529 28.4159 13.263 28.4159 12.6586V5.71173C28.4159 5.10733 27.9435 4.61743 27.3608 4.61743Z" fill="#232323"/>
<path d="M28.1069 15.7519C27.9105 15.5472 27.6383 15.4314 27.3609 15.4314C27.0824 15.4314 26.8111 15.5474 26.6139 15.7519C26.4176 15.9555 26.3058 16.2378 26.3058 16.5255C26.3058 16.8133 26.4177 17.0956 26.6139 17.2991C26.8112 17.5027 27.0824 17.6197 27.3609 17.6197C27.6385 17.6197 27.9107 17.5027 28.1069 17.2991C28.3031 17.0956 28.4161 16.8133 28.4161 16.5255C28.4161 16.2378 28.3031 15.9555 28.1069 15.7519Z" fill="#232323"/>
<path d="M20.9303 14.5655L18.2364 11.7743C17.8243 11.3472 17.156 11.3474 16.7442 11.7749C16.3323 12.2025 16.3325 12.8953 16.7447 13.3225L19.4387 16.1139C19.6446 16.3274 19.9145 16.434 20.1844 16.434C20.4546 16.434 20.725 16.3269 20.931 16.1132C21.3428 15.6855 21.3426 14.9927 20.9303 14.5655Z" fill="#232323"/>
<path d="M37.979 11.7773C37.5668 11.35 36.8986 11.3504 36.4868 11.7778L33.6227 14.7502C33.2108 15.1778 33.2111 15.8707 33.6233 16.2978C33.8293 16.5114 34.0992 16.6181 34.3691 16.6181C34.6393 16.6181 34.9094 16.5111 35.1154 16.2972L37.9794 13.3248C38.3915 12.8972 38.3912 12.2043 37.979 11.7773Z" fill="#232323"/>
<path d="M53.814 31.4738C51.5852 22.8478 43.005 17.7105 34.6872 20.022C31.8324 20.8154 29.3102 22.3927 27.3403 24.5768C24.3929 21.3214 20.3137 19.4776 15.9649 19.4776C7.35366 19.4776 0.3479 26.743 0.3479 35.6731C0.3479 44.6032 7.35366 51.8684 15.9649 51.8684C20.3179 51.8684 24.4036 50.019 27.3521 46.7557C30.2716 49.9659 34.389 51.8629 38.7327 51.8629C40.0668 51.8629 41.4227 51.6838 42.7711 51.3092C51.0889 48.9978 56.0428 40.0996 53.814 31.4738ZM15.9649 49.6799C8.51719 49.6799 2.45822 43.3964 2.45822 35.673C2.45822 27.9495 8.51719 21.6661 15.9649 21.6661C19.8203 21.6661 23.4311 23.3416 25.9936 26.2907C25.7137 26.7013 25.4499 27.1268 25.2043 27.5678C23.1186 31.3142 22.5646 35.6787 23.6443 39.8571C24.1396 41.7748 24.9491 43.5198 25.9996 45.049C23.4365 48.002 19.8216 49.6799 15.9649 49.6799ZM42.2249 49.1952C35.0312 51.1936 27.6103 46.7511 25.6828 39.2909C24.749 35.6771 25.2282 31.9023 27.032 28.6623C27.3649 28.0645 27.7356 27.4983 28.1405 26.9659C28.158 26.945 28.1742 26.9235 28.1901 26.9014C29.9757 24.5823 32.4175 22.9185 35.2332 22.136C36.3999 21.8121 37.5718 21.6572 38.7259 21.6572C44.6888 21.6572 50.1604 25.7899 51.7752 32.0403C53.703 39.5006 49.4186 47.1961 42.2249 49.1952Z" fill="#232323"/>
<path d="M35.638 33.5201C35.3115 32.2559 34.0546 31.5028 32.835 31.8417C31.616 32.1805 30.8901 33.4844 31.2167 34.7486C31.3431 35.2375 31.7694 35.56 32.2353 35.56C32.3256 35.56 32.4177 35.5479 32.5091 35.5224C33.072 35.3659 33.406 34.7661 33.255 34.1823C33.2297 34.0838 33.2862 33.9821 33.3812 33.9557C33.44 33.9395 33.4872 33.9569 33.5165 33.9743C33.5455 33.9918 33.5838 34.0254 33.5995 34.0864C33.7504 34.6702 34.3287 35.0168 34.8919 34.8601C35.455 34.7039 35.7889 34.1039 35.638 33.5201Z" fill="#CBACFF"/>
<path d="M45.1898 30.8661C45.0315 30.2538 44.6529 29.7419 44.1234 29.4248C43.5939 29.108 42.9772 29.0237 42.3868 29.1879C41.7962 29.3519 41.3027 29.7446 40.9971 30.2937C40.6914 30.8427 40.6101 31.4823 40.7685 32.0948C40.8948 32.5836 41.3211 32.9061 41.7871 32.9061C41.8773 32.9059 41.9694 32.8939 42.0609 32.8684C42.6237 32.7119 42.9578 32.112 42.807 31.5281C42.7913 31.4671 42.8079 31.4182 42.8248 31.3879C42.8417 31.3577 42.8741 31.3181 42.933 31.3019C42.9918 31.2856 43.0392 31.3029 43.0683 31.3203C43.0974 31.3377 43.1355 31.3714 43.1513 31.4326C43.3021 32.0162 43.8805 32.3627 44.4437 32.2063C45.0066 32.0498 45.3406 31.4499 45.1898 30.8661Z" fill="#CBACFF"/>
<path d="M44.2656 37.7323C44.1147 37.1486 43.5361 36.802 42.9732 36.9585C42.4102 37.115 42.0763 37.7148 42.2271 38.2987C42.5861 39.6883 41.7881 41.1218 40.4481 41.4942C39.7988 41.6747 39.1209 41.582 38.5391 41.2336C37.9569 40.885 37.5406 40.3224 37.3668 39.6493C37.2159 39.0656 36.6374 38.7187 36.0744 38.8755C35.5116 39.0321 35.1776 39.632 35.3283 40.2157C35.6483 41.4536 36.4137 42.4882 37.4839 43.129C38.1966 43.5557 38.9879 43.7738 39.7895 43.7738C40.1915 43.7738 40.596 43.7191 40.9945 43.6082C43.4583 42.9235 44.9258 40.2874 44.2656 37.7323Z" fill="#CBACFF"/>
</g>
<defs>
<clipPath id="clip0">
<rect width="54" height="56" fill="white" transform="translate(0.3479 0.24292)"/>
</clipPath>
</defs>
</svg>
